<svg width="38" height="38" viewBox="0 0 38 38" fill="none" xmlns="http://www.w3.org/2000/svg">
<path d="M33.091 3.17383H4.90768C4.44576 3.17383 4.00276 3.35732 3.67614 3.68395C3.34951 4.01058 3.16602 4.45358 3.16602 4.91549V33.0988C3.16602 33.5607 3.34951 34.0037 3.67614 34.3304C4.00276 34.657 4.44576 34.8405 4.90768 34.8405H20.076V22.5697H15.9593V17.8197H20.076V14.2572C19.9907 13.4208 20.0895 12.5759 20.3653 11.7817C20.6411 10.9875 21.0874 10.2633 21.6728 9.65981C22.2581 9.05635 22.9684 8.58826 23.7538 8.28837C24.5392 7.98848 25.3808 7.86406 26.2193 7.92383C27.4517 7.91532 28.6835 7.97876 29.9085 8.11383V12.3888H27.391C25.396 12.3888 25.016 13.3388 25.016 14.7163V17.7722H29.766L29.1485 22.5222H25.016V34.8405H33.091C33.3197 34.8405 33.5462 34.7954 33.7575 34.7079C33.9688 34.6204 34.1608 34.4921 34.3226 34.3304C34.4843 34.1686 34.6126 33.9766 34.7001 33.7653C34.7876 33.554 34.8327 33.3275 34.8327 33.0988V4.91549C34.8327 4.68678 34.7876 4.4603 34.7001 4.24899C34.6126 4.03768 34.4843 3.84568 34.3226 3.68395C34.1608 3.52222 33.9688 3.39393 33.7575 3.3064C33.5462 3.21888 33.3197 3.17383 33.091 3.17383Z" fill="white"/>
</svg>
