<svg width="38" height="38" viewBox="0 0 38 38" fill="none" xmlns="http://www.w3.org/2000/svg">
<path d="M12.3493 3.17383H25.6493C30.716 3.17383 34.8327 7.29049 34.8327 12.3572V25.6572C34.8327 28.0927 33.8652 30.4285 32.1429 32.1508C30.4207 33.873 28.0849 34.8405 25.6493 34.8405H12.3493C7.28268 34.8405 3.16602 30.7238 3.16602 25.6572V12.3572C3.16602 9.92159 4.13354 7.58577 5.85575 5.86356C7.57796 4.14136 9.91378 3.17383 12.3493 3.17383ZM12.0327 6.34049C10.5209 6.34049 9.07113 6.94103 8.00217 8.00999C6.93322 9.07894 6.33268 10.5288 6.33268 12.0405V25.9738C6.33268 29.1247 8.88185 31.6738 12.0327 31.6738H25.966C27.4777 31.6738 28.9276 31.0733 29.9965 30.0043C31.0655 28.9354 31.666 27.4856 31.666 25.9738V12.0405C31.666 8.88966 29.1168 6.34049 25.966 6.34049H12.0327ZM27.3118 8.71549C27.8368 8.71549 28.3402 8.92401 28.7113 9.29518C29.0825 9.66634 29.291 10.1698 29.291 10.6947C29.291 11.2196 29.0825 11.723 28.7113 12.0941C28.3402 12.4653 27.8368 12.6738 27.3118 12.6738C26.7869 12.6738 26.2835 12.4653 25.9124 12.0941C25.5412 11.723 25.3327 11.2196 25.3327 10.6947C25.3327 10.1698 25.5412 9.66634 25.9124 9.29518C26.2835 8.92401 26.7869 8.71549 27.3118 8.71549ZM18.9993 11.0905C21.099 11.0905 23.1126 11.9246 24.5973 13.4092C26.0819 14.8939 26.916 16.9075 26.916 19.0072C26.916 21.1068 26.0819 23.1204 24.5973 24.6051C23.1126 26.0898 21.099 26.9238 18.9993 26.9238C16.8997 26.9238 14.8861 26.0898 13.4014 24.6051C11.9168 23.1204 11.0827 21.1068 11.0827 19.0072C11.0827 16.9075 11.9168 14.8939 13.4014 13.4092C14.8861 11.9246 16.8997 11.0905 18.9993 11.0905ZM18.9993 14.2572C17.7396 14.2572 16.5314 14.7576 15.6406 15.6484C14.7498 16.5392 14.2493 17.7474 14.2493 19.0072C14.2493 20.2669 14.7498 21.4751 15.6406 22.3659C16.5314 23.2567 17.7396 23.7572 18.9993 23.7572C20.2591 23.7572 21.4673 23.2567 22.3581 22.3659C23.2489 21.4751 23.7493 20.2669 23.7493 19.0072C23.7493 17.7474 23.2489 16.5392 22.3581 15.6484C21.4673 14.7576 20.2591 14.2572 18.9993 14.2572Z" fill="white"/>
</svg>
