<svg width="164" height="25" viewBox="0 0 164 25" fill="none" xmlns="http://www.w3.org/2000/svg">
<path d="M12.0593 23.245C9.866 23.245 7.906 22.825 6.17934 21.985C4.476 21.1217 3.13434 19.8383 2.15434 18.135C1.19767 16.4317 0.719336 14.32 0.719336 11.8C0.719336 8.39333 1.65267 5.68667 3.51934 3.68C5.40934 1.65 8.186 0.634998 11.8493 0.634998C13.786 0.634998 15.4543 0.891665 16.8543 1.405C18.2777 1.91833 19.456 2.53667 20.3893 3.26L18.6043 7.32C17.881 6.85333 16.9943 6.46833 15.9443 6.165C14.9177 5.83833 13.891 5.675 12.8643 5.675C10.9977 5.675 9.551 6.24667 8.52434 7.39C7.521 8.51 7.01934 10.0033 7.01934 11.87C7.01934 13.34 7.29934 14.5417 7.85934 15.475C8.41934 16.385 9.15434 17.0617 10.0643 17.505C10.9743 17.925 11.9427 18.135 12.9693 18.135C13.506 18.135 13.9727 18.1 14.3693 18.03C14.766 17.9367 15.0577 17.8433 15.2443 17.75V14.39H11.4643V9.91H21.1943V19.78C20.331 20.8067 19.0943 21.6467 17.4843 22.3C15.8743 22.93 14.066 23.245 12.0593 23.245ZM33.9625 23.21C30.8592 23.21 28.5375 22.4867 26.9975 21.04C25.4575 19.5933 24.6875 17.5167 24.6875 14.81V0.739999H30.6375V14.705C30.6375 15.895 30.9292 16.7933 31.5125 17.4C32.1192 17.9833 32.9592 18.275 34.0325 18.275C36.2025 18.275 37.2875 17.085 37.2875 14.705V0.739999H43.2375V14.81C43.2375 17.5167 42.4675 19.5933 40.9275 21.04C39.4108 22.4867 37.0892 23.21 33.9625 23.21ZM61.8184 24.715L52.6834 15.615V23H46.7334V2.84C47.2934 2.46667 48.0401 2.11667 48.9734 1.79C49.9301 1.44 50.9917 1.16 52.1584 0.949998C53.3251 0.716665 54.5151 0.599998 55.7284 0.599998C58.6917 0.599998 61.0017 1.28833 62.6584 2.665C64.3384 4.04167 65.1784 5.94333 65.1784 8.37C65.1784 10.2133 64.7117 11.7533 63.7784 12.99C62.8684 14.2267 61.6317 15.1367 60.0684 15.72L65.8434 20.375L61.8184 24.715ZM56.0084 12.08C57.0351 12.08 57.8284 11.7533 58.3884 11.1C58.9484 10.4467 59.2284 9.61833 59.2284 8.615C59.2284 7.58833 58.9251 6.77167 58.3184 6.165C57.7351 5.535 56.8251 5.22 55.5884 5.22C54.4217 5.22 53.4534 5.45333 52.6834 5.92V8.65C52.6834 9.74667 52.9984 10.5983 53.6284 11.205C54.2817 11.7883 55.0751 12.08 56.0084 12.08ZM77.9176 23.21C74.8142 23.21 72.4926 22.4867 70.9526 21.04C69.4126 19.5933 68.6426 17.5167 68.6426 14.81V0.739999H74.5926V14.705C74.5926 15.895 74.8842 16.7933 75.4676 17.4C76.0742 17.9833 76.9142 18.275 77.9876 18.275C80.1576 18.275 81.2426 17.085 81.2426 14.705V0.739999H87.1926V14.81C87.1926 17.5167 86.4226 19.5933 84.8826 21.04C83.3659 22.4867 81.0442 23.21 77.9176 23.21ZM90.6885 23V0.739999H106.333V5.255H96.6385V10.75H105.283V15.265H96.6385V23H90.6885ZM109.487 23V0.739999H115.437V23H109.487ZM118.921 23V0.739999H124.871V18.1H133.376V23H118.921ZM135.832 23L137.932 0.739999H144.932L149.517 13.165L149.622 13.585L149.692 13.165L154.522 0.739999H161.522L163.272 23H156.972L156.272 9.525L156.167 8.93H156.097L155.922 9.525L151.722 20.9H147.522L143.287 9.525L143.147 8.93H143.042L142.937 9.525L142.132 23H135.832Z" fill="url(#paint0_linear_96_515)"/>
<defs>
<linearGradient id="paint0_linear_96_515" x1="82" y1="-34" x2="82" y2="58" gradientUnits="userSpaceOnUse">
<stop stop-color="#FFD700"/>
<stop offset="1" stop-color="#715F03"/>
</linearGradient>
</defs>
</svg>
