<svg width="38" height="38" viewBox="0 0 38 38" fill="none" xmlns="http://www.w3.org/2000/svg">
<path d="M26.2826 9.22281C25.2005 7.98706 24.6041 6.40036 24.6043 4.75781H19.7118V24.3911C19.6748 25.4539 19.2265 26.4607 18.4614 27.1992C17.6963 27.9377 16.6743 28.3501 15.6109 28.3495C13.3626 28.3495 11.4943 26.5128 11.4943 24.2328C11.4943 21.5095 14.1226 19.467 16.8301 20.3061V15.3028C11.3676 14.5745 6.58594 18.8178 6.58594 24.2328C6.58594 29.5053 10.9559 33.2578 15.5951 33.2578C20.5668 33.2578 24.6043 29.2203 24.6043 24.2328V14.2736C26.5882 15.6984 28.9701 16.4628 31.4126 16.4586V11.5661C31.4126 11.5661 28.4359 11.7086 26.2826 9.22281Z" fill="white"/>
</svg>
